<?xml version="1.0" standalone="no"?>
<!DOCTYPE svg PUBLIC "-//W3C//DTD SVG 20010904//EN"
 "http://www.w3.org/TR/2001/REC-SVG-20010904/DTD/svg10.dtd">
<svg version="1.0" xmlns="http://www.w3.org/2000/svg"
 width="16.000000pt" height="16.000000pt" viewBox="0 0 16.000000 16.000000"
 preserveAspectRatio="xMidYMid meet">
<metadata>
Created by potrace 1.11, written by Peter Selinger 2001-2013
</metadata>
<g transform="translate(0.000000,16.000000) scale(0.006154,-0.006154)"
fill="#000000" stroke="none">
<path d="M0 1300 l0 -1300 1300 0 1300 0 0 1300 0 1300 -1300 0 -1300 0 0
-1300z m1877 852 c38 -20 84 -65 129 -128 l22 -29 23 30 c74 95 142 134 234
135 102 0 194 -58 231 -145 35 -86 25 -223 -26 -331 -61 -126 -269 -323 -433
-409 l-54 -29 -69 42 c-144 87 -307 252 -377 380 -83 152 -69 337 33 437 74
73 197 93 287 47z m-980 -1 c37 -17 71 -54 109 -117 10 -17 14 -16 65 19 70
48 129 57 191 29 67 -29 101 -80 106 -157 7 -105 -16 -156 -113 -250 -84 -84
-184 -145 -300 -185 l-54 -19 -73 77 c-127 133 -198 273 -198 389 0 175 128
277 267 214z m-561 -97 l34 -36 44 22 c79 38 136 -1 136 -92 0 -43 -5 -53 -41
-93 -47 -51 -88 -78 -146 -99 l-41 -14 -51 51 c-104 103 -128 210 -61 270 44
39 84 36 126 -9z m254 -444 c15 -16 31 -45 34 -65 11 -58 -24 -158 -78 -222
-25 -30 -27 -30 -78 -21 -146 27 -242 131 -204 222 20 48 61 57 143 31 18 -6
23 -2 29 19 16 67 106 88 154 36z m920 -45 c68 -35 78 -144 24 -250 -41 -82
-63 -99 -118 -91 -59 9 -159 60 -190 97 -79 94 -8 219 99 174 46 -19 45 -19
45 1 0 23 64 84 89 84 12 0 35 -7 51 -15z m-667 -136 c12 -6 32 -23 44 -38
l21 -26 24 23 c17 15 37 22 64 22 78 0 119 -83 79 -159 -21 -43 -110 -117
-161 -137 l-45 -17 -37 30 c-20 16 -55 56 -77 87 -35 50 -40 65 -40 113 0 49
3 58 33 84 35 31 60 36 95 18z m-596 -229 c37 -22 51 -69 34 -113 -14 -36 -15
-34 17 -40 84 -17 110 -97 50 -156 -17 -17 -48 -34 -67 -37 -47 -9 -133 9
-199 43 l-54 28 5 62 c11 111 65 202 133 223 42 12 46 12 81 -10z m2072 -47
c33 -35 34 -35 61 -19 42 24 96 21 125 -9 29 -28 34 -89 10 -134 -25 -49 -126
-118 -197 -135 -38 -9 -97 46 -138 126 -35 71 -38 120 -10 166 38 62 94 64
149 5z m-532 1 c62 -36 88 -96 87 -201 0 -73 1 -80 13 -63 17 24 65 50 92 50
34 0 78 -46 85 -90 l6 -40 53 0 c44 -1 55 -5 71 -26 46 -64 4 -152 -86 -179
-51 -15 -154 -20 -194 -9 -29 8 -57 91 -58 175 0 37 -1 67 -2 66 -2 -1 -26
-38 -55 -82 -55 -84 -166 -199 -222 -229 l-33 -18 -74 37 c-136 68 -261 183
-307 282 -76 165 -4 323 148 323 50 0 100 -22 147 -68 l37 -34 14 24 c69 109
175 140 278 82z m-1116 -94 c38 -40 39 -40 68 -25 74 38 141 1 141 -78 0 -29
-8 -55 -22 -77 -29 -43 -107 -96 -167 -114 l-46 -14 -41 40 c-104 100 -126
248 -43 294 42 23 70 17 110 -26z m319 -345 c20 -21 22 -31 16 -79 l-6 -54 35
-12 c89 -29 86 -142 -5 -180 -49 -20 -138 -7 -209 30 -33 18 -62 38 -65 46 -9
24 13 127 40 182 31 63 72 92 130 92 30 0 46 -6 64 -25z"/>
<path d="M1771 1989 c-53 -16 -78 -37 -102 -86 -28 -59 -22 -103 31 -211 49
-98 141 -202 233 -262 l61 -39 70 37 c94 49 229 183 281 277 64 114 53 192
-35 253 -36 24 -114 30 -153 11 -12 -6 -48 -38 -79 -72 -31 -34 -58 -59 -60
-57 -34 47 -106 124 -126 134 -40 20 -83 26 -121 15z"/>
<path d="M783 1995 c-37 -26 -48 -83 -29 -143 30 -88 148 -252 183 -252 21 0
138 63 196 105 59 44 107 109 107 146 0 91 -70 121 -186 78 l-56 -21 -36 34
c-21 19 -48 42 -62 52 -31 20 -89 21 -117 1z"/>
<path d="M1584 1004 c-21 -14 -49 -35 -61 -46 -21 -20 -22 -20 -50 -1 -142 96
-269 15 -189 -121 37 -64 213 -206 254 -206 20 0 146 136 181 195 47 77 50
145 8 181 -38 33 -92 32 -143 -2z"/>
</g>
</svg>
